# Blender v3.2.1 OBJ File: ''
# www.blender.org
mtllib LeftArmUp.mtl
o Right_Arm_Right_Arm_Right_Arm_Cube_Left_Arm_Cube.002
v -1.050000 2.999485 -0.447532
v -1.050001 2.988660 1.452438
v -1.950000 2.988662 1.452438
v -1.950000 2.999481 -0.447532
v -1.975002 3.974468 -0.441978
v -1.975000 3.963646 1.457991
v -1.950000 3.988646 1.458134
v -1.950002 3.999467 -0.441835
v -1.025000 3.963646 1.457991
v -1.025000 3.974470 -0.441978
v -1.050000 3.999469 -0.441835
v -1.050000 3.988646 1.458134
v -2.000000 3.049480 -0.447248
v -2.000000 3.038661 1.452722
v -2.000000 3.938647 1.457849
v -2.000002 3.949468 -0.442120
v -1.000000 3.949470 -0.442120
v -1.000000 3.938647 1.457849
v -1.000000 3.038659 1.452722
v -1.000000 3.049484 -0.447248
v -1.025001 3.013660 1.452579
v -1.024998 3.024483 -0.447388
v -1.037215 3.962352 -0.459321
v -1.055177 3.969434 -0.467007
v -1.944823 3.029801 -0.472358
v -1.055176 3.029803 -0.472358
v -1.055178 3.018695 1.477608
v -1.944824 3.018697 1.477608
v -1.969824 3.944433 -0.467149
v -1.969822 3.054801 -0.472218
v -1.969824 3.043697 1.477751
v -1.969823 3.933328 1.482819
v -1.030176 3.054802 -0.472218
v -1.030177 3.944434 -0.467149
v -1.944824 3.969433 -0.467007
v -1.975002 3.013662 1.452579
v -1.975000 3.024481 -0.447388
v -1.945341 3.957810 1.482959
v -1.055177 3.958327 1.482962
v -1.030177 3.933327 1.482819
v -1.030178 3.043695 1.477751
v -1.060355 3.939399 -0.492178
v -1.939646 3.939398 -0.492178
v -1.060354 3.060122 -0.497186
v -1.939645 3.060121 -0.497186
v -1.037214 3.036796 -0.464592
v -1.962785 3.036795 -0.464592
v -1.962786 3.962351 -0.459321
v -1.962785 3.951334 1.475196
v -1.939646 3.928008 1.507789
v -1.060355 3.928007 1.507789
v -1.939646 3.048731 1.502780
v -1.060355 3.048730 1.502780
v -1.962787 3.025778 1.469923
v -1.037216 3.025777 1.469923
v -1.037214 3.951333 1.475196
vt 0.150390 0.367188
vt 0.150390 0.154297
vt 0.248047 0.154297
vt 0.248047 0.367188
vt 0.371094 0.367188
vt 0.371094 0.154297
vt 0.376953 0.154297
vt 0.376953 0.367188
vt 0.480469 0.154297
vt 0.480469 0.367188
vt 0.474609 0.367188
vt 0.474609 0.154297
vt 0.037110 0.367188
vt 0.037110 0.154297
vt 0.134772 0.154297
vt 0.134772 0.367188
vt 0.263672 0.367188
vt 0.263672 0.154297
vt 0.361328 0.154297
vt 0.361328 0.367188
vt 0.367188 0.154297
vt 0.367188 0.367188
vt 0.480469 0.373047
vt 0.474609 0.373047
vt 0.248047 0.373047
vt 0.150390 0.373047
vt 0.150390 0.148437
vt 0.248047 0.148437
vt 0.134772 0.373047
vt 0.037110 0.373047
vt 0.037110 0.148437
vt 0.134772 0.148437
vt 0.361328 0.373047
vt 0.263672 0.373047
vt 0.376953 0.373047
vt 0.253906 0.154297
vt 0.253906 0.367188
vt 0.257813 0.367188
vt 0.257813 0.154297
vt 0.140625 0.154297
vt 0.140625 0.367188
vt 0.144531 0.367188
vt 0.144531 0.154297
vt 0.031250 0.367188
vt 0.031250 0.154297
vt 0.376953 0.148437
vt 0.474609 0.148437
vt 0.263672 0.148437
vt 0.361328 0.148437
vt 0.474609 0.382812
vt 0.376953 0.382812
vt 0.376953 0.376953
vt 0.474609 0.376953
vt 0.474609 0.480469
vt 0.480469 0.382812
vt 0.480454 0.480469
vt 0.376953 0.480469
vt 0.371109 0.480469
vt 0.371094 0.382812
vt 0.474609 0.486328
vt 0.376953 0.486328
vt 0.257813 0.373047
vt 0.480469 0.376953
vt 0.367188 0.373047
vt 0.144531 0.373047
vt 0.480469 0.486328
vt 0.253906 0.373047
vt 0.031250 0.373047
vt 0.371094 0.486328
vt 0.140625 0.373047
vt 0.371094 0.373047
vt 0.371094 0.376953
vt 0.376953 0.148438
vt 0.371094 0.148438
vt 0.371094 0.154297
vt 0.376953 0.154297
vt 0.376953 0.138672
vt 0.474609 0.138672
vt 0.474609 0.144531
vt 0.376953 0.144531
vt 0.376953 0.041015
vt 0.371094 0.138672
vt 0.371108 0.041015
vt 0.474609 0.041015
vt 0.480453 0.041015
vt 0.480469 0.138672
vt 0.376953 0.035156
vt 0.474609 0.035156
vt 0.361329 0.148438
vt 0.361329 0.154297
vt 0.367188 0.154297
vt 0.367188 0.148438
vt 0.371094 0.144531
vt 0.263672 0.148438
vt 0.257813 0.148438
vt 0.257813 0.154297
vt 0.263672 0.154297
vt 0.248047 0.148438
vt 0.248047 0.154297
vt 0.253906 0.154297
vt 0.253906 0.148438
vt 0.371094 0.035156
vt 0.150391 0.148438
vt 0.144531 0.148438
vt 0.144531 0.154297
vt 0.150391 0.154297
vt 0.134766 0.148438
vt 0.134766 0.154297
vt 0.140625 0.154297
vt 0.140625 0.148438
vt 0.480469 0.035157
vt 0.037110 0.148438
vt 0.031250 0.148438
vt 0.031250 0.154297
vt 0.037110 0.154297
vt 0.474610 0.148438
vt 0.474609 0.154297
vt 0.480469 0.154297
vt 0.480469 0.148438
vt 0.480469 0.144531
vn 0.0269 -0.9994 -0.0212
vn 0.0269 -0.9996 0.0098
vn -0.0269 -0.9996 0.0098
vn -0.0269 -0.9994 -0.0212
vn -0.7071 0.7071 -0.0048
vn -0.7071 0.7070 0.0127
vn -0.0269 0.9994 0.0213
vn -0.0269 0.9996 -0.0098
vn 0.7071 0.7070 0.0128
vn 0.7071 0.7071 -0.0048
vn 0.0269 0.9996 -0.0098
vn 0.0269 0.9994 0.0213
vn -0.9995 -0.0268 -0.0157
vn -0.9995 -0.0270 0.0154
vn -0.9995 0.0268 0.0157
vn -0.9995 0.0270 -0.0154
vn 0.9995 0.0270 -0.0154
vn 0.9995 0.0268 0.0157
vn 0.9995 -0.0270 0.0154
vn 0.9995 -0.0268 -0.0157
vn 0.7071 -0.7071 0.0048
vn 0.7071 -0.7070 -0.0127
vn 0.5000 0.5040 -0.7042
vn 0.0117 0.6411 -0.7674
vn -0.0117 -0.6323 -0.7746
vn 0.0116 -0.6323 -0.7746
vn 0.0117 -0.6411 0.7674
vn -0.0117 -0.6411 0.7674
vn -0.6367 0.0161 -0.7709
vn -0.6367 -0.0073 -0.7711
vn -0.6367 -0.0160 0.7709
vn -0.6367 0.0072 0.7711
vn 0.6367 -0.0072 -0.7711
vn 0.6367 0.0161 -0.7709
vn -0.0117 0.6411 -0.7674
vn -0.7071 -0.7071 0.0048
vn -0.7071 -0.7070 -0.0129
vn -0.0117 0.6323 0.7746
vn 0.0115 0.6323 0.7746
vn 0.6367 0.0073 0.7711
vn 0.6367 -0.0161 0.7709
vn 0.0272 0.0329 -0.9991
vn -0.0272 0.0329 -0.9991
vn 0.0272 -0.0215 -0.9994
vn -0.0272 -0.0215 -0.9994
vn 0.5000 -0.4960 -0.7099
vn -0.5000 -0.4960 -0.7099
vn -0.5000 0.5040 -0.7042
vn -0.5000 0.4960 0.7099
vn -0.0272 0.0215 0.9994
vn 0.0272 0.0215 0.9994
vn -0.0272 -0.0329 0.9991
vn 0.0272 -0.0329 0.9991
vn -0.5000 -0.5040 0.7042
vn 0.5000 -0.5040 0.7042
vn 0.5000 0.4960 0.7099
usemtl RightArm.001
s 1
f 1/1/1 2/2/2 3/3/3 4/4/4
f 5/5/5 6/6/6 7/7/7 8/8/8
f 9/9/9 10/10/10 11/11/11 12/12/12
f 8/8/8 7/7/7 12/12/12 11/11/11
f 13/13/13 14/14/14 15/15/15 16/16/16
f 17/17/17 18/18/18 19/19/19 20/20/20
f 21/21/21 22/22/22 20/20/20 19/19/19
f 11/11/11 10/10/10 23/23/23 24/24/24
f 25/25/25 26/26/26 1/1/1 4/4/4
f 27/27/27 28/28/28 3/3/3 2/2/2
f 29/29/29 30/30/30 13/13/13 16/16/16
f 31/31/31 32/32/32 15/15/15 14/14/14
f 33/33/33 34/34/34 17/17/17 20/20/20
f 24/24/24 35/35/35 8/8/8 11/11/11
f 36/36/36 37/37/37 4/4/4 3/3/3
f 18/18/18 17/17/17 10/38/10 9/39/9
f 16/16/16 15/15/15 6/40/6 5/41/5
f 2/2/2 1/1/1 22/42/22 21/43/21
f 14/14/14 13/13/13 37/44/37 36/45/36
f 12/12/12 7/7/7 38/46/38 39/47/39
f 19/19/19 18/18/18 40/48/40 41/49/41
f 42/50/42 43/51/43 35/52/35 24/53/24
f 44/54/44 42/50/42 34/55/34 33/56/33
f 43/51/43 45/57/45 30/58/30 29/59/29
f 45/57/45 44/54/44 26/60/26 25/61/25
f 45/57/45 43/51/43 42/50/42 44/54/44
f 17/17/17 34/34/34 23/62/23 10/38/10
f 34/55/34 42/50/42 24/53/24 23/63/23
f 20/20/20 22/22/22 46/64/46 33/33/33
f 1/1/1 26/26/26 46/65/46 22/42/22
f 26/60/26 44/54/44 33/56/33 46/66/46
f 4/4/4 37/37/37 47/67/47 25/25/25
f 13/13/13 30/30/30 47/68/47 37/44/37
f 30/58/30 45/57/45 25/61/25 47/69/47
f 16/16/16 5/41/5 48/70/48 29/29/29
f 8/8/8 35/35/35 48/71/48 5/5/5
f 35/52/35 43/51/43 29/59/29 48/72/48
f 7/73/7 6/74/6 49/75/49 38/76/38
f 50/77/50 51/78/51 39/79/39 38/80/38
f 52/81/52 50/77/50 32/82/32 31/83/31
f 51/78/51 53/84/53 41/85/41 40/86/40
f 53/84/53 52/81/52 28/87/28 27/88/27
f 53/84/53 51/78/51 50/77/50 52/81/52
f 15/89/15 32/90/32 49/91/49 6/92/6
f 32/82/32 50/77/50 38/80/38 49/93/49
f 14/94/14 36/95/36 54/96/54 31/97/31
f 3/98/3 28/99/28 54/100/54 36/101/36
f 28/87/28 52/81/52 31/83/31 54/102/54
f 2/103/2 21/104/21 55/105/55 27/106/27
f 19/107/19 41/108/41 55/109/55 21/110/21
f 41/85/41 53/84/53 27/88/27 55/111/55
f 18/112/18 9/113/9 56/114/56 40/115/40
f 12/116/12 39/117/39 56/118/56 9/119/9
f 39/79/39 51/78/51 40/86/40 56/120/56
